<svg xmlns="http://www.w3.org/2000/svg" viewBox="0 0 32 32"><path fill="#27496d" d="M26.71,23a8,8,0,0,1-3,4.6A7.6,7.6,0,0,1,19.06,29H17.94a7.49,7.49,0,0,1-5.09-2.14,7.62,7.62,0,0,1-2-3.87,64.23,64.23,0,0,1,.76-9.22,5.85,5.85,0,0,1,.76-2.3c1.71-2.83,5.58-3.05,6.05-3.07H19c2.19,0,4.9.92,6.19,3.07a6,6,0,0,1,.76,2.3A54.8,54.8,0,0,1,26.71,23Z"/><rect width="1" height="2.96" x="18.32" y="16.44" fill="#dae1e7"/><rect width="1" height="2.94" x="18.32" y="8.79" fill="#dae1e7"/><path fill="#00909e" d="M5.5,18h-1V13.88A2.56,2.56,0,0,1,5.28,12,2.51,2.51,0,0,1,7,11.33a1.51,1.51,0,0,0,1.31-.78,1.49,1.49,0,0,0,.21-.77V7.22a2.58,2.58,0,0,1,.64-1.69,2.51,2.51,0,0,1,1.88-.86h0l5.74,0a2.51,2.51,0,0,1,2,1,2.59,2.59,0,0,1,.51,1.55v.89h-1V7.25a1.61,1.61,0,0,0-.31-1,1.51,1.51,0,0,0-1.2-.6l-5.75,0h0a1.49,1.49,0,0,0-1.13.52,1.55,1.55,0,0,0-.39,1V9.78a2.57,2.57,0,0,1-.34,1.27A2.51,2.51,0,0,1,7,12.33a1.54,1.54,0,0,0-1,.42,1.59,1.59,0,0,0-.47,1.13Z"/><rect width="2.53" height="4.71" x="17.56" y="11.73" fill="#00909e" rx="1.23"/><path fill="#142537" d="M19,8.4V29H17.94a7.49,7.49,0,0,1-5.09-2.14,7.62,7.62,0,0,1-2-3.87,64.23,64.23,0,0,1,.76-9.22,5.85,5.85,0,0,1,.76-2.3c1.71-2.83,5.58-3.05,6.05-3.07Z" opacity=".2"/></svg>